<svg xmlns="http://www.w3.org/2000/svg" viewBox="0 0 64 64" role="img" aria-label="Phone">
  <rect width="64" height="64" rx="12" fill="#fff9ef"/>
  <path d="M23.4 14.5c-2.4 1-4.2 4.1-4.2 7.1 0 12.8 10.4 23.2 23.2 23.2 3 0 6.1-1.8 7.1-4.2l1.7-4.1c.5-1.2 0-2.5-1.1-3.1l-7.1-3.6c-1-.5-2.2-.3-2.9.5l-2.6 3.1c-.6.7-1.6.9-2.4.5-3.7-1.9-6.7-4.9-8.6-8.6-.4-.8-.2-1.8.5-2.4l3.1-2.6c.8-.7 1-1.9.5-2.9L27 10.3c-.6-1.1-1.9-1.6-3.1-1.1l-.5.2z" fill="none" stroke="#ad625f" stroke-width="3.2" stroke-linecap="round" stroke-linejoin="round"/>
  <path d="M39.5 13.5c5.9 1.9 10.1 6.1 12 12" fill="none" stroke="#b88a3f" stroke-width="3" stroke-linecap="round"/>
  <path d="M38.5 21c2.3.9 3.6 2.2 4.5 4.5" fill="none" stroke="#b88a3f" stroke-width="3" stroke-linecap="round"/>
</svg>
